<svg width="14" height="20" viewBox="0 0 14 20" fill="none" xmlns="http://www.w3.org/2000/svg">
<path d="M7 4C6.73478 4 6.48043 4.10536 6.29289 4.29289C6.10536 4.48043 6 4.73478 6 5V7C6 7.26522 6.10536 7.51957 6.29289 7.70711C6.48043 7.89464 6.73478 8 7 8C7.26522 8 7.51957 7.89464 7.70711 7.70711C7.89464 7.51957 8 7.26522 8 7V5C8 4.73478 7.89464 4.48043 7.70711 4.29289C7.51957 4.10536 7.26522 4 7 4ZM7 0C5.14348 0 3.36301 0.737498 2.05025 2.05025C0.737498 3.36301 0 5.14348 0 7V13C2.76642e-08 14.8565 0.737498 16.637 2.05025 17.9497C3.36301 19.2625 5.14348 20 7 20C8.85652 20 10.637 19.2625 11.9497 17.9497C13.2625 16.637 14 14.8565 14 13V7C14 5.14348 13.2625 3.36301 11.9497 2.05025C10.637 0.737498 8.85652 0 7 0ZM12 13C12 14.3261 11.4732 15.5979 10.5355 16.5355C9.59785 17.4732 8.32608 18 7 18C5.67392 18 4.40215 17.4732 3.46447 16.5355C2.52678 15.5979 2 14.3261 2 13V7C2 5.67392 2.52678 4.40215 3.46447 3.46447C4.40215 2.52678 5.67392 2 7 2C8.32608 2 9.59785 2.52678 10.5355 3.46447C11.4732 4.40215 12 5.67392 12 7V13Z" fill="white"/>
</svg>
