<svg width="22" height="22" viewBox="0 0 22 22" fill="none" xmlns="http://www.w3.org/2000/svg">
<path d="M9 4C8.80222 4 8.60888 4.05865 8.44443 4.16853C8.27998 4.27841 8.15181 4.43459 8.07612 4.61732C8.00043 4.80004 7.98063 5.00111 8.01921 5.19509C8.0578 5.38907 8.15304 5.56725 8.29289 5.70711C8.43275 5.84696 8.61093 5.9422 8.80491 5.98079C8.99889 6.01937 9.19996 5.99957 9.38268 5.92388C9.56541 5.84819 9.72159 5.72002 9.83147 5.55557C9.94135 5.39112 10 5.19778 10 5C10 4.73478 9.89464 4.48043 9.70711 4.29289C9.51957 4.10536 9.26522 4 9 4ZM5 4C4.80222 4 4.60888 4.05865 4.44443 4.16853C4.27998 4.27841 4.15181 4.43459 4.07612 4.61732C4.00043 4.80004 3.98063 5.00111 4.01921 5.19509C4.0578 5.38907 4.15304 5.56725 4.29289 5.70711C4.43275 5.84696 4.61093 5.9422 4.80491 5.98079C4.99889 6.01937 5.19996 5.99957 5.38268 5.92388C5.56541 5.84819 5.72159 5.72002 5.83147 5.55557C5.94135 5.39112 6 5.19778 6 5C6 4.73478 5.89464 4.48043 5.70711 4.29289C5.51957 4.10536 5.26522 4 5 4ZM13 4C12.8022 4 12.6089 4.05865 12.4444 4.16853C12.28 4.27841 12.1518 4.43459 12.0761 4.61732C12.0004 4.80004 11.9806 5.00111 12.0192 5.19509C12.0578 5.38907 12.153 5.56725 12.2929 5.70711C12.4327 5.84696 12.6109 5.9422 12.8049 5.98079C12.9989 6.01937 13.2 5.99957 13.3827 5.92388C13.5654 5.84819 13.7216 5.72002 13.8315 5.55557C13.9414 5.39112 14 5.19778 14 5C14 4.73478 13.8946 4.48043 13.7071 4.29289C13.5196 4.10536 13.2652 4 13 4ZM19 0H3C2.20435 0 1.44129 0.31607 0.87868 0.87868C0.31607 1.44129 0 2.20435 0 3V19C0 19.7956 0.31607 20.5587 0.87868 21.1213C1.44129 21.6839 2.20435 22 3 22H19C19.7956 22 20.5587 21.6839 21.1213 21.1213C21.6839 20.5587 22 19.7956 22 19V3C22 2.20435 21.6839 1.44129 21.1213 0.87868C20.5587 0.31607 19.7956 0 19 0ZM20 19C20 19.2652 19.8946 19.5196 19.7071 19.7071C19.5196 19.8946 19.2652 20 19 20H3C2.73478 20 2.48043 19.8946 2.29289 19.7071C2.10536 19.5196 2 19.2652 2 19V10H20V19ZM20 8H2V3C2 2.73478 2.10536 2.48043 2.29289 2.29289C2.48043 2.10536 2.73478 2 3 2H19C19.2652 2 19.5196 2.10536 19.7071 2.29289C19.8946 2.48043 20 2.73478 20 3V8Z" fill="white"/>
</svg>
