<svg width="18" height="21" viewBox="0 0 18 21" fill="none" xmlns="http://www.w3.org/2000/svg">
<path d="M15 5.00019H11.41L13.71 2.71019C13.8032 2.61695 13.8772 2.50626 13.9277 2.38443C13.9781 2.26261 14.0041 2.13204 14.0041 2.00019C14.0041 1.86833 13.9781 1.73776 13.9277 1.61594C13.8772 1.49411 13.8032 1.38342 13.71 1.29019C13.6168 1.19695 13.5061 1.12299 13.3842 1.07253C13.2624 1.02207 13.1319 0.996094 13 0.996094C12.7337 0.996094 12.4783 1.10188 12.29 1.29019L9 4.54019L7.83 2.54019C7.76434 2.42594 7.67682 2.32574 7.57243 2.24531C7.46805 2.16489 7.34885 2.10581 7.22163 2.07145C7.09441 2.03709 6.96168 2.02813 6.83099 2.04507C6.70031 2.06201 6.57425 2.10452 6.46 2.17019C6.34575 2.23585 6.24555 2.32337 6.16513 2.42775C6.0847 2.53214 6.02562 2.65134 5.99126 2.77856C5.95691 2.90577 5.94794 3.03851 5.96488 3.16919C5.98182 3.29987 6.02434 3.42594 6.09 3.54019L7 5.00019H3C2.20435 5.00019 1.44129 5.31626 0.87868 5.87887C0.316071 6.44147 0 7.20454 0 8.00019V16.0002C0 16.7958 0.316071 17.5589 0.87868 18.1215C1.44129 18.6841 2.20435 19.0002 3 19.0002V20.0002C3 20.2654 3.10536 20.5198 3.29289 20.7073C3.48043 20.8948 3.73478 21.0002 4 21.0002C4.26522 21.0002 4.51957 20.8948 4.70711 20.7073C4.89464 20.5198 5 20.2654 5 20.0002V19.0002H13V20.0002C13 20.2654 13.1054 20.5198 13.2929 20.7073C13.4804 20.8948 13.7348 21.0002 14 21.0002C14.2652 21.0002 14.5196 20.8948 14.7071 20.7073C14.8946 20.5198 15 20.2654 15 20.0002V19.0002C15.7956 19.0002 16.5587 18.6841 17.1213 18.1215C17.6839 17.5589 18 16.7958 18 16.0002V8.00019C18 7.20454 17.6839 6.44147 17.1213 5.87887C16.5587 5.31626 15.7956 5.00019 15 5.00019ZM16 16.0002C16 16.2654 15.8946 16.5198 15.7071 16.7073C15.5196 16.8948 15.2652 17.0002 15 17.0002H3C2.73478 17.0002 2.48043 16.8948 2.29289 16.7073C2.10536 16.5198 2 16.2654 2 16.0002V8.00019C2 7.73497 2.10536 7.48062 2.29289 7.29308C2.48043 7.10554 2.73478 7.00019 3 7.00019H15C15.2652 7.00019 15.5196 7.10554 15.7071 7.29308C15.8946 7.48062 16 7.73497 16 8.00019V16.0002Z" fill="white"/>
</svg>
